<svg width="65" height="59" viewBox="0 0 65 59" fill="none" xmlns="http://www.w3.org/2000/svg">
<rect x="0.25" y="0.5" width="64.1667" height="57.75" rx="15" fill="#FEF1DE"/>
<path d="M42.8437 27.8458L22.9794 15.5898C22.8237 15.4938 22.6488 15.4553 22.4758 15.479C22.3028 15.5027 22.139 15.5876 22.0042 15.7235C21.8755 15.8567 21.7794 16.0315 21.7267 16.2283C21.6741 16.4251 21.667 16.6362 21.7062 16.8377L24.3789 28.8374L21.6701 40.8037C21.6333 40.9721 21.629 41.1487 21.6576 41.3194C21.6861 41.4901 21.7468 41.6502 21.8346 41.7867C21.9224 41.9233 22.035 42.0325 22.1632 42.1056C22.2915 42.1787 22.4319 42.2136 22.573 42.2076C22.7144 42.2066 22.8536 42.1646 22.9794 42.0851L42.8437 29.8291C42.9916 29.7356 43.1157 29.5935 43.2024 29.4186C43.2891 29.2436 43.3349 29.0425 43.3349 28.8374C43.3349 28.6324 43.2891 28.4313 43.2024 28.2563C43.1157 28.0814 42.9916 27.9393 42.8437 27.8458ZM23.9726 38.9876L25.968 29.9516H34.3111V27.7233H25.968L23.9726 18.6873L40.4148 28.8374L23.9726 38.9876Z" fill="#F1824D"/>
</svg>
