<svg width="27" height="24" viewBox="0 0 27 24" fill="none" xmlns="http://www.w3.org/2000/svg">
<path d="M9.67259 3.01337L9.50396 3.38289C9.50912 3.35986 9.51421 3.3368 9.51921 3.31369L9.60757 2.90578L9.64551 2.96869C9.65451 2.98361 9.66354 2.99851 9.67259 3.01337ZM8.98025 13.7187C8.75114 13.7187 8.6169 13.6564 8.50621 13.5569C8.40081 13.4621 8.37827 13.3951 8.37827 13.2912C8.37827 13.1874 8.40081 13.1203 8.50621 13.0255C8.6169 12.926 8.75114 12.8637 8.98025 12.8637C9.20937 12.8637 9.3436 12.926 9.45429 13.0255C9.55969 13.1203 9.58223 13.1874 9.58223 13.2912C9.58223 13.3951 9.55969 13.4621 9.45429 13.5569C9.3436 13.6564 9.20937 13.7187 8.98025 13.7187ZM17.2697 13.7187C17.0406 13.7187 16.9064 13.6564 16.7957 13.5569C16.6903 13.4621 16.6678 13.3951 16.6678 13.2912C16.6678 13.1874 16.6903 13.1203 16.7957 13.0255C16.9064 12.926 17.0406 12.8637 17.2697 12.8637C17.4989 12.8637 17.6331 12.926 17.7438 13.0255C17.8492 13.1203 17.8717 13.1874 17.8717 13.2912C17.8717 13.3951 17.8492 13.4621 17.7438 13.5569C17.6331 13.6564 17.4989 13.7187 17.2697 13.7187Z" fill="#F1824D" stroke="#F1824D" stroke-width="2.25"/>
</svg>
