<svg width="23" height="25" viewBox="0 0 23 25" fill="none" xmlns="http://www.w3.org/2000/svg">
<path d="M13.0316 1.62632C13.0316 1.2613 12.8834 0.911226 12.6197 0.653115C12.356 0.395005 11.9983 0.25 11.6253 0.25C11.2524 0.25 10.8947 0.395005 10.6309 0.653115C10.3672 0.911226 10.2191 1.2613 10.2191 1.62632L10.2148 12.641C10.2148 13.006 10.363 13.3561 10.6267 13.6142C10.8904 13.8723 11.2481 14.0173 11.6211 14.0173C11.9941 14.0173 12.3517 13.8723 12.6155 13.6142C12.8792 13.3561 13.0273 13.006 13.0273 12.641L13.0316 1.62632Z" fill="#F1824D"/>
<path d="M0.375 13.99C0.375 10.9483 1.63359 8.19564 3.66984 6.2041L5.65828 8.15022C4.47822 9.30509 3.67457 10.7765 3.34896 12.3784C3.02335 13.9803 3.19041 15.6407 3.82901 17.1497C4.46761 18.6587 5.54906 19.9484 6.93662 20.8558C8.32417 21.7633 9.95549 22.2476 11.6243 22.2476C13.2931 22.2476 14.9244 21.7633 16.312 20.8558C17.6995 19.9484 18.781 18.6587 19.4196 17.1497C20.0582 15.6407 20.2252 13.9803 19.8996 12.3784C19.574 10.7765 18.7704 9.30509 17.5903 8.15022L19.5802 6.2041C20.8883 7.48447 21.8536 9.06083 22.3906 10.7935C22.9276 12.5263 23.0198 14.3618 22.6588 16.1377C22.2979 17.9136 21.495 19.5749 20.3213 20.9746C19.1477 22.3743 17.6395 23.4691 15.9302 24.162C14.221 24.8549 12.3636 25.1246 10.5225 24.9471C8.68132 24.7697 6.91331 24.1506 5.37503 23.1446C3.83675 22.1387 2.57569 20.777 1.70354 19.1802C0.831386 17.5833 0.375067 15.8006 0.375 13.99Z" fill="#F1824D"/>
</svg>
