<svg width="34" height="34" viewBox="0 0 34 34" fill="none" xmlns="http://www.w3.org/2000/svg">
<path d="M21.5625 19.5H20.4763L20.0913 19.1288C21.4853 17.5118 22.2515 15.4475 22.25 13.3125C22.25 11.5448 21.7258 9.81686 20.7438 8.3471C19.7617 6.87733 18.3659 5.73179 16.7327 5.05533C15.0996 4.37887 13.3026 4.20188 11.5689 4.54674C9.83518 4.89159 8.24267 5.74281 6.99274 6.99274C5.74281 8.24267 4.89159 9.83518 4.54674 11.5689C4.20188 13.3026 4.37887 15.0996 5.05533 16.7327C5.73179 18.3659 6.87733 19.7617 8.3471 20.7438C9.81686 21.7258 11.5448 22.25 13.3125 22.25C15.5263 22.25 17.5613 21.4388 19.1288 20.0913L19.5 20.4763V21.5625L26.375 28.4238L28.4238 26.375L21.5625 19.5ZM13.3125 19.5C9.88875 19.5 7.125 16.7363 7.125 13.3125C7.125 9.88875 9.88875 7.125 13.3125 7.125C16.7363 7.125 19.5 9.88875 19.5 13.3125C19.5 16.7363 16.7363 19.5 13.3125 19.5Z" fill="#F1824D"/>
</svg>
