<svg width="29" height="31" viewBox="0 0 29 31" fill="none" xmlns="http://www.w3.org/2000/svg">
<mask id="path-1-inside-1_2044_741" fill="white">
<path d="M3.9375 7.0625V22.0625C3.9375 22.5598 4.12517 23.0367 4.45922 23.3883C4.79327 23.74 5.24633 23.9375 5.71875 23.9375H23.5312C24.0037 23.9375 24.4567 23.74 24.7908 23.3883C25.1248 23.0367 25.3125 22.5598 25.3125 22.0625V7.0625H3.9375ZM3.9375 5.1875H25.3125C25.7849 5.1875 26.238 5.38504 26.572 5.73667C26.9061 6.08831 27.0937 6.56522 27.0937 7.0625V22.0625C27.0937 23.0571 26.7184 24.0109 26.0503 24.7141C25.3822 25.4174 24.4761 25.8125 23.5312 25.8125H5.71875C4.77392 25.8125 3.86778 25.4174 3.19968 24.7141C2.53158 24.0109 2.15625 23.0571 2.15625 22.0625V7.0625C2.15625 6.56522 2.34392 6.08831 2.67797 5.73667C3.01202 5.38504 3.46508 5.1875 3.9375 5.1875Z"/>
</mask>
<path d="M3.9375 7.0625V22.0625C3.9375 22.5598 4.12517 23.0367 4.45922 23.3883C4.79327 23.74 5.24633 23.9375 5.71875 23.9375H23.5312C24.0037 23.9375 24.4567 23.74 24.7908 23.3883C25.1248 23.0367 25.3125 22.5598 25.3125 22.0625V7.0625H3.9375ZM3.9375 5.1875H25.3125C25.7849 5.1875 26.238 5.38504 26.572 5.73667C26.9061 6.08831 27.0937 6.56522 27.0937 7.0625V22.0625C27.0937 23.0571 26.7184 24.0109 26.0503 24.7141C25.3822 25.4174 24.4761 25.8125 23.5312 25.8125H5.71875C4.77392 25.8125 3.86778 25.4174 3.19968 24.7141C2.53158 24.0109 2.15625 23.0571 2.15625 22.0625V7.0625C2.15625 6.56522 2.34392 6.08831 2.67797 5.73667C3.01202 5.38504 3.46508 5.1875 3.9375 5.1875Z" fill="#F1824D"/>
<path d="M3.9375 7.0625V-0.4375H-3.5625V7.0625H3.9375ZM3.9375 22.0625L-3.5625 22.0625L3.9375 22.0625ZM25.3125 7.0625H32.8125V-0.4375H25.3125V7.0625ZM3.9375 5.1875L3.9375 -2.3125L3.9375 5.1875ZM25.3125 5.1875V-2.3125V5.1875ZM2.15625 22.0625L-5.34375 22.0625L2.15625 22.0625ZM-3.5625 7.0625V22.0625H11.4375V7.0625H-3.5625ZM-3.5625 22.0625C-3.5625 24.4283 -2.67327 26.7697 -0.97828 28.5539L9.89671 18.2227C10.9236 19.3036 11.4375 20.6912 11.4375 22.0625L-3.5625 22.0625ZM-0.97828 28.5539C0.729125 30.3512 3.12946 31.4375 5.71875 31.4375V16.4375C7.36321 16.4375 8.85741 17.1287 9.89671 18.2227L-0.97828 28.5539ZM5.71875 31.4375H23.5312V16.4375H5.71875V31.4375ZM23.5312 31.4375C26.1205 31.4375 28.5209 30.3512 30.2283 28.5539L19.3533 18.2227C20.3926 17.1287 21.8868 16.4375 23.5312 16.4375V31.4375ZM30.2283 28.5539C31.9233 26.7697 32.8125 24.4283 32.8125 22.0625H17.8125C17.8125 20.6913 18.3264 19.3037 19.3533 18.2227L30.2283 28.5539ZM32.8125 22.0625V7.0625H17.8125V22.0625H32.8125ZM25.3125 -0.4375H3.9375V14.5625H25.3125V-0.4375ZM3.9375 12.6875H25.3125V-2.3125H3.9375V12.6875ZM25.3125 12.6875C23.668 12.6875 22.1738 11.9963 21.1345 10.9023L32.0095 0.571054C30.3021 -1.22622 27.9018 -2.3125 25.3125 -2.3125L25.3125 12.6875ZM21.1345 10.9023C20.1077 9.82137 19.5937 8.43377 19.5937 7.0625H34.5937C34.5937 4.69667 33.7045 2.35524 32.0095 0.571054L21.1345 10.9023ZM19.5937 7.0625V22.0625H34.5937V7.0625H19.5937ZM19.5937 22.0625C19.5937 21.1885 19.92 20.2778 20.6128 19.5485L31.4878 29.8798C33.5168 27.7439 34.5937 24.9256 34.5937 22.0625H19.5937ZM20.6128 19.5485C21.3181 18.8062 22.3592 18.3125 23.5312 18.3125V33.3125C26.593 33.3125 29.4464 32.0287 31.4878 29.8798L20.6128 19.5485ZM23.5312 18.3125H5.71875V33.3125H23.5312V18.3125ZM5.71875 18.3125C6.89079 18.3125 7.93192 18.8062 8.63718 19.5485L-2.23781 29.8798C-0.19636 32.0287 2.65704 33.3125 5.71875 33.3125V18.3125ZM8.63718 19.5485C9.33002 20.2778 9.65625 21.1885 9.65625 22.0625L-5.34375 22.0625C-5.34375 24.9256 -4.26685 27.7439 -2.23781 29.8798L8.63718 19.5485ZM9.65625 22.0625V7.0625H-5.34375V22.0625H9.65625ZM9.65625 7.0625C9.65625 8.43375 9.14236 9.82135 8.11546 10.9023L-2.75953 0.571054C-4.45452 2.35526 -5.34375 4.69669 -5.34375 7.0625L9.65625 7.0625ZM8.11546 10.9023C7.07615 11.9963 5.58195 12.6875 3.9375 12.6875L3.9375 -2.3125C1.34821 -2.3125 -1.05212 -1.22622 -2.75953 0.571054L8.11546 10.9023Z" fill="#F1824D" mask="url(#path-1-inside-1_2044_741)"/>
<mask id="path-3-inside-2_2044_741" fill="white">
<path d="M25.5352 7.0625L18.6471 15.35C18.1455 15.9535 17.5271 16.4372 16.8335 16.7686C16.1398 17.1 15.3868 17.2715 14.625 17.2715C13.8632 17.2715 13.1102 17.1 12.4165 16.7686C11.7229 16.4372 11.1045 15.9535 10.6029 15.35L3.71484 7.0625H25.5352ZM6.08212 7.0625L11.9424 14.1144C12.2768 14.5168 12.6891 14.8394 13.1516 15.0604C13.6141 15.2814 14.1162 15.3957 14.6241 15.3957C15.132 15.3957 15.6341 15.2814 16.0966 15.0604C16.5591 14.8394 16.9714 14.5168 17.3058 14.1144L23.1679 7.0625H6.08212Z"/>
</mask>
<path d="M25.5352 7.0625L18.6471 15.35C18.1455 15.9535 17.5271 16.4372 16.8335 16.7686C16.1398 17.1 15.3868 17.2715 14.625 17.2715C13.8632 17.2715 13.1102 17.1 12.4165 16.7686C11.7229 16.4372 11.1045 15.9535 10.6029 15.35L3.71484 7.0625H25.5352ZM6.08212 7.0625L11.9424 14.1144C12.2768 14.5168 12.6891 14.8394 13.1516 15.0604C13.6141 15.2814 14.1162 15.3957 14.6241 15.3957C15.132 15.3957 15.6341 15.2814 16.0966 15.0604C16.5591 14.8394 16.9714 14.5168 17.3058 14.1144L23.1679 7.0625H6.08212Z" fill="#F1824D"/>
<path d="M25.5352 7.0625L31.303 11.8564L41.521 -0.4375H25.5352V7.0625ZM18.6471 15.35L12.8792 10.5561L12.8788 10.5565L18.6471 15.35ZM14.625 17.2715L14.625 24.7715L14.625 17.2715ZM10.6029 15.35L16.3712 10.5565L16.3708 10.5561L10.6029 15.35ZM3.71484 7.0625V-0.4375H-12.271L-2.05303 11.8564L3.71484 7.0625ZM6.08212 7.0625V-0.4375H-9.90235L0.313934 11.856L6.08212 7.0625ZM11.9424 14.1144L17.7113 9.32159L17.7106 9.32084L11.9424 14.1144ZM14.6241 15.3957V7.89573V15.3957ZM17.3058 14.1144L11.5383 9.31998L11.537 9.32159L17.3058 14.1144ZM23.1679 7.0625L28.9353 11.8569L39.1555 -0.4375L23.1679 -0.4375V7.0625ZM19.7673 2.26858L12.8792 10.5561L24.4149 20.1439L31.303 11.8564L19.7673 2.26858ZM12.8788 10.5565C13.055 10.3445 13.2957 10.1469 13.6004 10.0013L20.0665 23.536C21.7586 22.7276 23.236 21.5626 24.4153 20.1435L12.8788 10.5565ZM13.6004 10.0013C13.9067 9.85495 14.2574 9.77149 14.625 9.77149L14.625 24.7715C16.5162 24.7715 18.3729 24.3451 20.0665 23.536L13.6004 10.0013ZM14.625 9.77149C14.9926 9.77149 15.3433 9.85495 15.6496 10.0013L9.18351 23.536C10.8771 24.3451 12.7338 24.7715 14.625 24.7715L14.625 9.77149ZM15.6496 10.0013C15.9543 10.1469 16.195 10.3445 16.3712 10.5565L4.83472 20.1435C6.01401 21.5626 7.49138 22.7276 9.18351 23.536L15.6496 10.0013ZM16.3708 10.5561L9.48271 2.26858L-2.05303 11.8564L4.83507 20.1439L16.3708 10.5561ZM3.71484 14.5625H25.5352V-0.4375H3.71484V14.5625ZM0.313934 11.856L6.17425 18.9079L17.7106 9.32084L11.8503 2.26897L0.313934 11.856ZM6.17362 18.9072C7.18571 20.1254 8.45706 21.1294 9.91812 21.8276L16.3851 8.29322C16.9211 8.54935 17.3679 8.90833 17.7113 9.32159L6.17362 18.9072ZM9.91812 21.8276C11.3807 22.5264 12.9866 22.8957 14.6241 22.8957V7.89573C15.2458 7.89573 15.8475 8.03638 16.3851 8.29322L9.91812 21.8276ZM14.6241 22.8957C16.2616 22.8957 17.8675 22.5264 19.3301 21.8276L12.8631 8.29322C13.4007 8.03638 14.0024 7.89573 14.6241 7.89573L14.6241 22.8957ZM19.3301 21.8276C20.7912 21.1294 22.0625 20.1254 23.0746 18.9072L11.537 9.32159C11.8803 8.90833 12.3271 8.54935 12.8631 8.29322L19.3301 21.8276ZM23.0733 18.9088L28.9353 11.8569L17.4004 2.2681L11.5383 9.31998L23.0733 18.9088ZM23.1679 -0.4375H6.08212V14.5625H23.1679V-0.4375Z" fill="#F1824D" mask="url(#path-3-inside-2_2044_741)"/>
</svg>
