<svg width="24" height="23" viewBox="0 0 24 23" fill="none" xmlns="http://www.w3.org/2000/svg">
<path d="M20.9816 9.30503C20.9816 9.12487 20.9449 8.94646 20.8736 8.78001C20.8024 8.61356 20.698 8.46232 20.5663 8.33493C20.4347 8.20753 20.2784 8.10647 20.1064 8.03753C19.9344 7.96858 19.7501 7.9331 19.5639 7.9331C19.3777 7.9331 19.1934 7.96858 19.0214 8.03753C18.8494 8.10647 18.6931 8.20753 18.5615 8.33493C18.4298 8.46232 18.3254 8.61356 18.2541 8.78001C18.1829 8.94646 18.1462 9.12487 18.1462 9.30503H20.9816ZM5.10376 9.30503C5.10376 8.94117 4.9544 8.59221 4.68854 8.33493C4.42268 8.07764 4.06209 7.9331 3.6861 7.9331C3.31012 7.9331 2.94953 8.07764 2.68367 8.33493C2.4178 8.59221 2.26844 8.94117 2.26844 9.30503H5.10376ZM20.8296 12.4704C21.0955 12.7277 21.4561 12.8722 21.8322 12.8722C22.2082 12.8722 22.5688 12.7277 22.8347 12.4704C23.1006 12.213 23.25 11.864 23.25 11.5001C23.25 11.1362 23.1006 10.7872 22.8347 10.5299L20.8296 12.4704ZM11.625 1.62219L12.6276 0.651958C12.4959 0.524524 12.3396 0.423436 12.1676 0.354467C11.9956 0.285498 11.8112 0.25 11.625 0.25C11.4388 0.25 11.2544 0.285498 11.0824 0.354467C10.9104 0.423436 10.7541 0.524524 10.6224 0.651958L11.625 1.62219ZM0.415278 10.5299C0.14938 10.7872 0 11.1362 0 11.5001C0 11.864 0.14938 12.213 0.415278 12.4704C0.681176 12.7277 1.04181 12.8722 1.41785 12.8722C1.79388 12.8722 2.15452 12.7277 2.42042 12.4704L0.415278 10.5299ZM5.95436 22.75H17.2956V20.0061H5.95436V22.75ZM20.9816 19.183V9.30503H18.1462V19.183H20.9816ZM5.10376 19.183V9.30503H2.26844V19.183H5.10376ZM22.8347 10.5299L12.6276 0.651958L10.6224 2.59242L20.8296 12.4704L22.8347 10.5299ZM10.6224 0.651958L0.415278 10.5299L2.42042 12.4704L12.6276 2.59242L10.6224 0.651958ZM17.2956 22.75C18.2732 22.75 19.2107 22.3742 19.902 21.7052C20.5932 21.0363 20.9816 20.129 20.9816 19.183H18.1462C18.1462 19.4013 18.0566 19.6107 17.8971 19.765C17.7376 19.9194 17.5212 20.0061 17.2956 20.0061V22.75ZM5.95436 20.0061C5.72877 20.0061 5.51241 19.9194 5.3529 19.765C5.19338 19.6107 5.10376 19.4013 5.10376 19.183H2.26844C2.26844 20.129 2.65678 21.0363 3.34802 21.7052C4.03927 22.3742 4.97679 22.75 5.95436 22.75V20.0061Z" fill="#F1824D"/>
</svg>
