<svg width="24" height="24" viewBox="0 0 24 24" fill="none" xmlns="http://www.w3.org/2000/svg">
<path d="M21.4816 9.80503C21.4816 9.62487 21.4449 9.44646 21.3736 9.28001C21.3024 9.11356 21.198 8.96232 21.0663 8.83493C20.9347 8.70753 20.7784 8.60647 20.6064 8.53753C20.4344 8.46858 20.2501 8.4331 20.0639 8.4331C19.8777 8.4331 19.6934 8.46858 19.5214 8.53753C19.3494 8.60647 19.1931 8.70753 19.0615 8.83493C18.9298 8.96232 18.8254 9.11356 18.7541 9.28001C18.6829 9.44646 18.6462 9.62487 18.6462 9.80503H21.4816ZM5.60376 9.80503C5.60376 9.44117 5.4544 9.09221 5.18854 8.83493C4.92268 8.57764 4.56209 8.4331 4.1861 8.4331C3.81012 8.4331 3.44953 8.57764 3.18367 8.83493C2.9178 9.09221 2.76844 9.44117 2.76844 9.80503H5.60376ZM21.3296 12.9704C21.5955 13.2277 21.9561 13.3722 22.3322 13.3722C22.7082 13.3722 23.0688 13.2277 23.3347 12.9704C23.6006 12.713 23.75 12.364 23.75 12.0001C23.75 11.6362 23.6006 11.2872 23.3347 11.0299L21.3296 12.9704ZM12.125 2.12219L13.1276 1.15196C12.9959 1.02452 12.8396 0.923436 12.6676 0.854467C12.4956 0.785498 12.3112 0.75 12.125 0.75C11.9388 0.75 11.7544 0.785498 11.5824 0.854467C11.4104 0.923436 11.2541 1.02452 11.1224 1.15196L12.125 2.12219ZM0.915278 11.0299C0.64938 11.2872 0.5 11.6362 0.5 12.0001C0.5 12.364 0.64938 12.713 0.915278 12.9704C1.18118 13.2277 1.54181 13.3722 1.91785 13.3722C2.29388 13.3722 2.65452 13.2277 2.92042 12.9704L0.915278 11.0299ZM6.45436 23.25H17.7956V20.5061H6.45436V23.25ZM21.4816 19.683V9.80503H18.6462V19.683H21.4816ZM5.60376 19.683V9.80503H2.76844V19.683H5.60376ZM23.3347 11.0299L13.1276 1.15196L11.1224 3.09242L21.3296 12.9704L23.3347 11.0299ZM11.1224 1.15196L0.915278 11.0299L2.92042 12.9704L13.1276 3.09242L11.1224 1.15196ZM17.7956 23.25C18.7732 23.25 19.7107 22.8742 20.402 22.2052C21.0932 21.5363 21.4816 20.629 21.4816 19.683H18.6462C18.6462 19.9013 18.5566 20.1107 18.3971 20.265C18.2376 20.4194 18.0212 20.5061 17.7956 20.5061V23.25ZM6.45436 20.5061C6.22877 20.5061 6.01241 20.4194 5.8529 20.265C5.69338 20.1107 5.60376 19.9013 5.60376 19.683H2.76844C2.76844 20.629 3.15678 21.5363 3.84802 22.2052C4.53927 22.8742 5.47679 23.25 6.45436 23.25V20.5061Z" fill="#F1824D"/>
</svg>
