<svg width="917" height="489" viewBox="0 0 917 489" fill="none" xmlns="http://www.w3.org/2000/svg">
<rect x="0.5" y="1.5" width="266.456" height="148.958" fill="#EAEAEA"/>
<line y1="-0.338542" x2="305.266" y2="-0.338542" transform="matrix(0.872864 -0.487963 0.416057 0.909339 0.5 150.458)" stroke="white" stroke-width="0.677083"/>
<line y1="-0.338542" x2="305.266" y2="-0.338542" transform="matrix(-0.872864 -0.487963 -0.416057 0.909339 266.956 150.458)" stroke="white" stroke-width="0.677083"/>
<rect x="325.147" y="170.771" width="266.456" height="148.958" fill="#EAEAEA"/>
<line y1="-0.338542" x2="305.266" y2="-0.338542" transform="matrix(0.872864 -0.487963 0.416057 0.909339 325.147 319.729)" stroke="white" stroke-width="0.677083"/>
<line y1="-0.338542" x2="305.266" y2="-0.338542" transform="matrix(-0.872864 -0.487963 -0.416057 0.909339 591.602 319.729)" stroke="white" stroke-width="0.677083"/>
<rect x="0.5" y="340.042" width="266.456" height="148.958" fill="#EAEAEA"/>
<line y1="-0.338542" x2="305.266" y2="-0.338542" transform="matrix(0.872864 -0.487963 0.416057 0.909339 0.5 489)" stroke="white" stroke-width="0.677083"/>
<line y1="-0.338542" x2="305.266" y2="-0.338542" transform="matrix(-0.872864 -0.487963 -0.416057 0.909339 266.956 489)" stroke="white" stroke-width="0.677083"/>
<rect x="649.794" y="1.5" width="266.456" height="148.958" fill="#EAEAEA"/>
<line y1="-0.338542" x2="305.266" y2="-0.338542" transform="matrix(0.872864 -0.487963 0.416057 0.909339 649.794 150.458)" stroke="white" stroke-width="0.677083"/>
<line y1="-0.338542" x2="305.266" y2="-0.338542" transform="matrix(-0.872864 -0.487963 -0.416057 0.909339 916.25 150.458)" stroke="white" stroke-width="0.677083"/>
<rect x="649.794" y="170.771" width="266.456" height="148.958" fill="#EAEAEA"/>
<line y1="-0.338542" x2="305.266" y2="-0.338542" transform="matrix(0.872864 -0.487963 0.416057 0.909339 649.794 319.729)" stroke="white" stroke-width="0.677083"/>
<line y1="-0.338542" x2="305.266" y2="-0.338542" transform="matrix(-0.872864 -0.487963 -0.416057 0.909339 916.25 319.729)" stroke="white" stroke-width="0.677083"/>
<rect x="649.794" y="340.042" width="266.456" height="148.958" fill="#EAEAEA"/>
<line y1="-0.338542" x2="305.266" y2="-0.338542" transform="matrix(0.872864 -0.487963 0.416057 0.909339 649.794 489)" stroke="white" stroke-width="0.677083"/>
<line y1="-0.338542" x2="305.266" y2="-0.338542" transform="matrix(-0.872864 -0.487963 -0.416057 0.909339 916.25 489)" stroke="white" stroke-width="0.677083"/>
<rect x="325.147" y="1.5" width="266.456" height="148.958" fill="#EAEAEA"/>
<line y1="-0.338542" x2="305.266" y2="-0.338542" transform="matrix(0.872864 -0.487963 0.416057 0.909339 325.147 150.458)" stroke="white" stroke-width="0.677083"/>
<line y1="-0.338542" x2="305.266" y2="-0.338542" transform="matrix(-0.872864 -0.487963 -0.416057 0.909339 591.602 150.458)" stroke="white" stroke-width="0.677083"/>
<rect x="0.5" y="170.771" width="266.456" height="148.958" fill="#EAEAEA"/>
<line y1="-0.338542" x2="305.266" y2="-0.338542" transform="matrix(0.872864 -0.487963 0.416057 0.909339 0.5 319.729)" stroke="white" stroke-width="0.677083"/>
<line y1="-0.338542" x2="305.266" y2="-0.338542" transform="matrix(-0.872864 -0.487963 -0.416057 0.909339 266.956 319.729)" stroke="white" stroke-width="0.677083"/>
<rect x="325.147" y="340.042" width="266.456" height="148.958" fill="#EAEAEA"/>
<line y1="-0.338542" x2="305.266" y2="-0.338542" transform="matrix(0.872864 -0.487963 0.416057 0.909339 325.147 489)" stroke="white" stroke-width="0.677083"/>
<line y1="-0.338542" x2="305.266" y2="-0.338542" transform="matrix(-0.872864 -0.487963 -0.416057 0.909339 591.602 489)" stroke="white" stroke-width="0.677083"/>
</svg>
