<svg width="27" height="25" viewBox="0 0 27 25" fill="none" xmlns="http://www.w3.org/2000/svg">
<path d="M10.1726 3.51337L10.004 3.88289C10.0091 3.85986 10.0142 3.8368 10.0192 3.81369L10.1076 3.40578L10.1455 3.46869C10.1545 3.48361 10.1635 3.49851 10.1726 3.51337ZM9.48025 14.2187C9.25114 14.2187 9.1169 14.1564 9.00621 14.0569C8.90081 13.9621 8.87827 13.8951 8.87827 13.7912C8.87827 13.6874 8.90081 13.6203 9.00621 13.5255C9.1169 13.426 9.25114 13.3637 9.48025 13.3637C9.70937 13.3637 9.8436 13.426 9.95429 13.5255C10.0597 13.6203 10.0822 13.6874 10.0822 13.7912C10.0822 13.8951 10.0597 13.9621 9.95429 14.0569C9.8436 14.1564 9.70937 14.2187 9.48025 14.2187ZM17.7697 14.2187C17.5406 14.2187 17.4064 14.1564 17.2957 14.0569C17.1903 13.9621 17.1678 13.8951 17.1678 13.7912C17.1678 13.6874 17.1903 13.6203 17.2957 13.5255C17.4064 13.426 17.5406 13.3637 17.7697 13.3637C17.9989 13.3637 18.1331 13.426 18.2438 13.5255C18.3492 13.6203 18.3717 13.6874 18.3717 13.7912C18.3717 13.8951 18.3492 13.9621 18.2438 14.0569C18.1331 14.1564 17.9989 14.2187 17.7697 14.2187Z" fill="#F1824D" stroke="#F1824D" stroke-width="2.25"/>
</svg>
