<svg width="65" height="59" viewBox="0 0 65 59" fill="none" xmlns="http://www.w3.org/2000/svg">
<rect x="0.5" y="0.5" width="64.1667" height="57.75" rx="15" fill="#FEF1DE"/>
<g clip-path="url(#clip0_32_637)">
<path d="M38.375 18.0312V20.375H42.5938C42.9667 20.375 43.3244 20.5232 43.5881 20.7869C43.8518 21.0506 44 21.4083 44 21.7812C44 22.1542 43.8518 22.5119 43.5881 22.7756C43.3244 23.0393 42.9667 23.1875 42.5938 23.1875H22.9062C22.5333 23.1875 22.1756 23.0393 21.9119 22.7756C21.6482 22.5119 21.5 22.1542 21.5 21.7812C21.5 21.4083 21.6482 21.0506 21.9119 20.7869C22.1756 20.5232 22.5333 20.375 22.9062 20.375H27.125V18.0312C27.125 16.22 28.595 14.75 30.4062 14.75H35.0938C36.905 14.75 38.375 16.22 38.375 18.0312ZM26.18 27.2656L27.4175 39.6406C27.4291 39.7563 27.4833 39.8636 27.5696 39.9415C27.6559 40.0195 27.7681 40.0626 27.8844 40.0625H37.6156C37.7319 40.0626 37.8441 40.0195 37.9304 39.9415C38.0167 39.8636 38.0709 39.7563 38.0825 39.6406L39.32 27.2656C39.3665 26.9024 39.5528 26.5716 39.8394 26.3436C40.126 26.1157 40.4902 26.0085 40.8546 26.0449C41.219 26.0813 41.5548 26.2584 41.7907 26.5385C42.0265 26.8187 42.1438 27.1797 42.1175 27.545L40.88 39.92C40.7991 40.7296 40.4203 41.4803 39.8171 42.0264C39.2139 42.5724 38.4293 42.8748 37.6156 42.875H27.8844C27.071 42.8749 26.2867 42.5727 25.6835 42.027C25.0803 41.4814 24.7013 40.7312 24.62 39.9219L23.3825 27.5469C23.359 27.3607 23.373 27.1717 23.4237 26.991C23.4744 26.8103 23.5608 26.6416 23.6777 26.4948C23.7946 26.348 23.9397 26.2261 24.1045 26.1363C24.2692 26.0464 24.4503 25.9905 24.637 25.9717C24.8237 25.9529 25.0123 25.9717 25.1917 26.027C25.371 26.0822 25.5375 26.1728 25.6813 26.2934C25.8251 26.414 25.9433 26.5621 26.0289 26.7291C26.1146 26.8961 26.166 27.0785 26.18 27.2656ZM29.9375 18.0312V20.375H35.5625V18.0312C35.5625 17.9069 35.5131 17.7877 35.4252 17.6998C35.3373 17.6119 35.2181 17.5625 35.0938 17.5625H30.4062C30.2819 17.5625 30.1627 17.6119 30.0748 17.6998C29.9869 17.7877 29.9375 17.9069 29.9375 18.0312Z" fill="#FF9A62"/>
</g>
<defs>
<clipPath id="clip0_32_637">
<rect width="30" height="30" fill="white" transform="translate(17.75 14.75)"/>
</clipPath>
</defs>
</svg>
