<svg width="65" height="58" viewBox="0 0 65 58" fill="none" xmlns="http://www.w3.org/2000/svg">
<rect x="0.5" width="64.1667" height="57.75" rx="15" fill="#FEF1DE"/>
<g clip-path="url(#clip0_2044_609)">
<path d="M38.375 17.5312V19.875H42.5938C42.9667 19.875 43.3244 20.0232 43.5881 20.2869C43.8518 20.5506 44 20.9083 44 21.2812C44 21.6542 43.8518 22.0119 43.5881 22.2756C43.3244 22.5393 42.9667 22.6875 42.5938 22.6875H22.9062C22.5333 22.6875 22.1756 22.5393 21.9119 22.2756C21.6482 22.0119 21.5 21.6542 21.5 21.2812C21.5 20.9083 21.6482 20.5506 21.9119 20.2869C22.1756 20.0232 22.5333 19.875 22.9062 19.875H27.125V17.5312C27.125 15.72 28.595 14.25 30.4062 14.25H35.0938C36.905 14.25 38.375 15.72 38.375 17.5312ZM26.18 26.7656L27.4175 39.1406C27.4291 39.2563 27.4833 39.3636 27.5696 39.4415C27.6559 39.5195 27.7681 39.5626 27.8844 39.5625H37.6156C37.7319 39.5626 37.8441 39.5195 37.9304 39.4415C38.0167 39.3636 38.0709 39.2563 38.0825 39.1406L39.32 26.7656C39.3665 26.4024 39.5528 26.0716 39.8394 25.8436C40.126 25.6157 40.4902 25.5085 40.8546 25.5449C41.219 25.5813 41.5548 25.7584 41.7907 26.0385C42.0265 26.3187 42.1438 26.6797 42.1175 27.045L40.88 39.42C40.7991 40.2296 40.4203 40.9803 39.8171 41.5264C39.2139 42.0724 38.4293 42.3748 37.6156 42.375H27.8844C27.071 42.3749 26.2867 42.0727 25.6835 41.527C25.0803 40.9814 24.7013 40.2312 24.62 39.4219L23.3825 27.0469C23.359 26.8607 23.373 26.6717 23.4237 26.491C23.4744 26.3103 23.5608 26.1416 23.6777 25.9948C23.7946 25.848 23.9397 25.7261 24.1045 25.6363C24.2692 25.5464 24.4503 25.4905 24.637 25.4717C24.8237 25.4529 25.0123 25.4717 25.1917 25.527C25.371 25.5822 25.5375 25.6728 25.6813 25.7934C25.8251 25.914 25.9433 26.0621 26.0289 26.2291C26.1146 26.3961 26.166 26.5785 26.18 26.7656ZM29.9375 17.5312V19.875H35.5625V17.5312C35.5625 17.4069 35.5131 17.2877 35.4252 17.1998C35.3373 17.1119 35.2181 17.0625 35.0938 17.0625H30.4062C30.2819 17.0625 30.1627 17.1119 30.0748 17.1998C29.9869 17.2877 29.9375 17.4069 29.9375 17.5312Z" fill="#FF9A62"/>
</g>
<defs>
<clipPath id="clip0_2044_609">
<rect width="30" height="30" fill="white" transform="translate(17.75 14.25)"/>
</clipPath>
</defs>
</svg>
