<svg width="24" height="26" viewBox="0 0 24 26" fill="none" xmlns="http://www.w3.org/2000/svg">
<path d="M13.5316 2.12632C13.5316 1.7613 13.3834 1.41123 13.1197 1.15312C12.856 0.895005 12.4983 0.75 12.1253 0.75C11.7524 0.75 11.3947 0.895005 11.1309 1.15312C10.8672 1.41123 10.7191 1.7613 10.7191 2.12632L10.7148 13.141C10.7148 13.506 10.863 13.8561 11.1267 14.1142C11.3904 14.3723 11.7481 14.5173 12.1211 14.5173C12.4941 14.5173 12.8517 14.3723 13.1155 14.1142C13.3792 13.8561 13.5273 13.506 13.5273 13.141L13.5316 2.12632Z" fill="#F1824D"/>
<path d="M0.875 14.49C0.875 11.4483 2.13359 8.69564 4.16984 6.7041L6.15828 8.65022C4.97822 9.80509 4.17457 11.2765 3.84896 12.8784C3.52335 14.4803 3.69041 16.1407 4.32901 17.6497C4.96761 19.1587 6.04906 20.4484 7.43662 21.3558C8.82417 22.2633 10.4555 22.7476 12.1243 22.7476C13.7931 22.7476 15.4244 22.2633 16.812 21.3558C18.1995 20.4484 19.281 19.1587 19.9196 17.6497C20.5582 16.1407 20.7252 14.4803 20.3996 12.8784C20.074 11.2765 19.2704 9.80509 18.0903 8.65022L20.0802 6.7041C21.3883 7.98447 22.3536 9.56083 22.8906 11.2935C23.4276 13.0263 23.5198 14.8618 23.1588 16.6377C22.7979 18.4136 21.995 20.0749 20.8213 21.4746C19.6477 22.8743 18.1395 23.9691 16.4302 24.662C14.721 25.3549 12.8636 25.6246 11.0225 25.4471C9.18132 25.2697 7.41331 24.6506 5.87503 23.6446C4.33675 22.6387 3.07569 21.277 2.20354 19.6802C1.33139 18.0833 0.875067 16.3006 0.875 14.49Z" fill="#F1824D"/>
</svg>
