<svg width="23" height="25" viewBox="0 0 23 25" fill="none" xmlns="http://www.w3.org/2000/svg">
<path d="M13.0316 1.62632C13.0316 1.2613 12.8834 0.911226 12.6197 0.653115C12.356 0.395005 11.9983 0.25 11.6253 0.25C11.2524 0.25 10.8947 0.395005 10.6309 0.653115C10.3672 0.911226 10.2191 1.2613 10.2191 1.62632L10.2148 12.641C10.2148 13.006 10.363 13.3561 10.6267 13.6142C10.8904 13.8723 11.2481 14.0173 11.6211 14.0173C11.9941 14.0173 12.3517 13.8723 12.6155 13.6142C12.8792 13.3561 13.0273 13.006 13.0273 12.641L13.0316 1.62632Z" fill="#F1824D"/>
<path d="M0.375 13.9897C0.375 10.948 1.63359 8.1954 3.66984 6.20386L5.65828 8.14998C4.47822 9.30485 3.67457 10.7763 3.34896 12.3782C3.02335 13.9801 3.19041 15.6405 3.82901 17.1495C4.46761 18.6584 5.54906 19.9482 6.93662 20.8556C8.32417 21.763 9.95549 22.2473 11.6243 22.2473C13.2931 22.2473 14.9244 21.763 16.312 20.8556C17.6995 19.9482 18.781 18.6584 19.4196 17.1495C20.0582 15.6405 20.2252 13.9801 19.8996 12.3782C19.574 10.7763 18.7704 9.30485 17.5903 8.14998L19.5802 6.20386C20.8883 7.48423 21.8536 9.06058 22.3906 10.7933C22.9276 12.526 23.0198 14.3616 22.6588 16.1375C22.2979 17.9134 21.495 19.5747 20.3213 20.9744C19.1477 22.374 17.6395 23.4688 15.9302 24.1617C14.221 24.8547 12.3636 25.1243 10.5225 24.9469C8.68132 24.7694 6.91331 24.1503 5.37503 23.1444C3.83675 22.1385 2.57569 20.7768 1.70354 19.1799C0.831386 17.5831 0.375067 15.8004 0.375 13.9897Z" fill="#F1824D"/>
</svg>
