<svg width="30" height="30" viewBox="0 0 30 30" fill="none" xmlns="http://www.w3.org/2000/svg">
<mask id="path-1-inside-1_2044_829" fill="white">
<path d="M4.4375 6.5625V21.5625C4.4375 22.0598 4.62517 22.5367 4.95922 22.8883C5.29327 23.24 5.74633 23.4375 6.21875 23.4375H24.0312C24.5037 23.4375 24.9567 23.24 25.2908 22.8883C25.6248 22.5367 25.8125 22.0598 25.8125 21.5625V6.5625H4.4375ZM4.4375 4.6875H25.8125C26.2849 4.6875 26.738 4.88504 27.072 5.23667C27.4061 5.58831 27.5937 6.06522 27.5937 6.5625V21.5625C27.5937 22.5571 27.2184 23.5109 26.5503 24.2141C25.8822 24.9174 24.9761 25.3125 24.0312 25.3125H6.21875C5.27392 25.3125 4.36778 24.9174 3.69968 24.2141C3.03158 23.5109 2.65625 22.5571 2.65625 21.5625V6.5625C2.65625 6.06522 2.84392 5.58831 3.17797 5.23667C3.51202 4.88504 3.96508 4.6875 4.4375 4.6875Z"/>
</mask>
<path d="M4.4375 6.5625V21.5625C4.4375 22.0598 4.62517 22.5367 4.95922 22.8883C5.29327 23.24 5.74633 23.4375 6.21875 23.4375H24.0312C24.5037 23.4375 24.9567 23.24 25.2908 22.8883C25.6248 22.5367 25.8125 22.0598 25.8125 21.5625V6.5625H4.4375ZM4.4375 4.6875H25.8125C26.2849 4.6875 26.738 4.88504 27.072 5.23667C27.4061 5.58831 27.5937 6.06522 27.5937 6.5625V21.5625C27.5937 22.5571 27.2184 23.5109 26.5503 24.2141C25.8822 24.9174 24.9761 25.3125 24.0312 25.3125H6.21875C5.27392 25.3125 4.36778 24.9174 3.69968 24.2141C3.03158 23.5109 2.65625 22.5571 2.65625 21.5625V6.5625C2.65625 6.06522 2.84392 5.58831 3.17797 5.23667C3.51202 4.88504 3.96508 4.6875 4.4375 4.6875Z" fill="#F1824D"/>
<path d="M4.4375 6.5625V-0.9375H-3.0625V6.5625H4.4375ZM4.4375 21.5625L-3.0625 21.5625L4.4375 21.5625ZM25.8125 6.5625H33.3125V-0.9375H25.8125V6.5625ZM4.4375 4.6875L4.4375 -2.8125L4.4375 4.6875ZM25.8125 4.6875V-2.8125V4.6875ZM2.65625 21.5625L-4.84375 21.5625L2.65625 21.5625ZM-3.0625 6.5625V21.5625H11.9375V6.5625H-3.0625ZM-3.0625 21.5625C-3.0625 23.9283 -2.17327 26.2697 -0.47828 28.0539L10.3967 17.7227C11.4236 18.8036 11.9375 20.1912 11.9375 21.5625L-3.0625 21.5625ZM-0.47828 28.0539C1.22912 29.8512 3.62946 30.9375 6.21875 30.9375V15.9375C7.86321 15.9375 9.35741 16.6287 10.3967 17.7227L-0.47828 28.0539ZM6.21875 30.9375H24.0312V15.9375H6.21875V30.9375ZM24.0312 30.9375C26.6205 30.9375 29.0209 29.8512 30.7283 28.0539L19.8533 17.7227C20.8926 16.6287 22.3868 15.9375 24.0312 15.9375V30.9375ZM30.7283 28.0539C32.4233 26.2697 33.3125 23.9283 33.3125 21.5625H18.3125C18.3125 20.1913 18.8264 18.8037 19.8533 17.7227L30.7283 28.0539ZM33.3125 21.5625V6.5625H18.3125V21.5625H33.3125ZM25.8125 -0.9375H4.4375V14.0625H25.8125V-0.9375ZM4.4375 12.1875H25.8125V-2.8125H4.4375V12.1875ZM25.8125 12.1875C24.168 12.1875 22.6738 11.4963 21.6345 10.4023L32.5095 0.0710538C30.8021 -1.72622 28.4018 -2.8125 25.8125 -2.8125L25.8125 12.1875ZM21.6345 10.4023C20.6077 9.32137 20.0937 7.93377 20.0937 6.5625H35.0937C35.0937 4.19667 34.2045 1.85524 32.5095 0.0710538L21.6345 10.4023ZM20.0937 6.5625V21.5625H35.0937V6.5625H20.0937ZM20.0937 21.5625C20.0937 20.6885 20.42 19.7778 21.1128 19.0485L31.9878 29.3798C34.0168 27.2439 35.0937 24.4256 35.0937 21.5625H20.0937ZM21.1128 19.0485C21.8181 18.3062 22.8592 17.8125 24.0312 17.8125V32.8125C27.093 32.8125 29.9464 31.5287 31.9878 29.3798L21.1128 19.0485ZM24.0312 17.8125H6.21875V32.8125H24.0312V17.8125ZM6.21875 17.8125C7.39079 17.8125 8.43192 18.3062 9.13718 19.0485L-1.73781 29.3798C0.30364 31.5287 3.15704 32.8125 6.21875 32.8125V17.8125ZM9.13718 19.0485C9.83002 19.7778 10.1562 20.6885 10.1562 21.5625L-4.84375 21.5625C-4.84375 24.4256 -3.76685 27.2439 -1.73781 29.3798L9.13718 19.0485ZM10.1562 21.5625V6.5625H-4.84375V21.5625H10.1562ZM10.1562 6.5625C10.1562 7.93375 9.64236 9.32135 8.61546 10.4023L-2.25953 0.0710538C-3.95452 1.85526 -4.84375 4.19669 -4.84375 6.5625L10.1562 6.5625ZM8.61546 10.4023C7.57615 11.4963 6.08195 12.1875 4.4375 12.1875L4.4375 -2.8125C1.84821 -2.8125 -0.552122 -1.72622 -2.25953 0.0710538L8.61546 10.4023Z" fill="#F1824D" mask="url(#path-1-inside-1_2044_829)"/>
<mask id="path-3-inside-2_2044_829" fill="white">
<path d="M26.0352 6.5625L19.1471 14.85C18.6455 15.4535 18.0271 15.9372 17.3335 16.2686C16.6398 16.6 15.8868 16.7715 15.125 16.7715C14.3632 16.7715 13.6102 16.6 12.9165 16.2686C12.2229 15.9372 11.6045 15.4535 11.1029 14.85L4.21484 6.5625H26.0352ZM6.58212 6.5625L12.4424 13.6144C12.7768 14.0168 13.1891 14.3394 13.6516 14.5604C14.1141 14.7814 14.6162 14.8957 15.1241 14.8957C15.632 14.8957 16.1341 14.7814 16.5966 14.5604C17.0591 14.3394 17.4714 14.0168 17.8058 13.6144L23.6679 6.5625H6.58212Z"/>
</mask>
<path d="M26.0352 6.5625L19.1471 14.85C18.6455 15.4535 18.0271 15.9372 17.3335 16.2686C16.6398 16.6 15.8868 16.7715 15.125 16.7715C14.3632 16.7715 13.6102 16.6 12.9165 16.2686C12.2229 15.9372 11.6045 15.4535 11.1029 14.85L4.21484 6.5625H26.0352ZM6.58212 6.5625L12.4424 13.6144C12.7768 14.0168 13.1891 14.3394 13.6516 14.5604C14.1141 14.7814 14.6162 14.8957 15.1241 14.8957C15.632 14.8957 16.1341 14.7814 16.5966 14.5604C17.0591 14.3394 17.4714 14.0168 17.8058 13.6144L23.6679 6.5625H6.58212Z" fill="#F1824D"/>
<path d="M26.0352 6.5625L31.803 11.3564L42.021 -0.9375H26.0352V6.5625ZM19.1471 14.85L13.3792 10.0561L13.3788 10.0565L19.1471 14.85ZM15.125 16.7715L15.125 24.2715L15.125 16.7715ZM11.1029 14.85L16.8712 10.0565L16.8708 10.0561L11.1029 14.85ZM4.21484 6.5625V-0.9375H-11.771L-1.55303 11.3564L4.21484 6.5625ZM6.58212 6.5625V-0.9375H-9.40235L0.813934 11.356L6.58212 6.5625ZM12.4424 13.6144L18.2113 8.82159L18.2106 8.82084L12.4424 13.6144ZM15.1241 14.8957V7.39573V14.8957ZM17.8058 13.6144L12.0383 8.81998L12.037 8.82159L17.8058 13.6144ZM23.6679 6.5625L29.4353 11.3569L39.6555 -0.9375L23.6679 -0.9375V6.5625ZM20.2673 1.76858L13.3792 10.0561L24.9149 19.6439L31.803 11.3564L20.2673 1.76858ZM13.3788 10.0565C13.555 9.84451 13.7957 9.64685 14.1004 9.50126L20.5665 23.036C22.2586 22.2276 23.736 21.0626 24.9153 19.6435L13.3788 10.0565ZM14.1004 9.50126C14.4067 9.35495 14.7574 9.27149 15.125 9.27149L15.125 24.2715C17.0162 24.2715 18.8729 23.8451 20.5665 23.036L14.1004 9.50126ZM15.125 9.27149C15.4926 9.27149 15.8433 9.35495 16.1496 9.50126L9.68351 23.036C11.3771 23.8451 13.2338 24.2715 15.125 24.2715L15.125 9.27149ZM16.1496 9.50126C16.4543 9.64685 16.695 9.84451 16.8712 10.0565L5.33472 19.6435C6.51401 21.0626 7.99138 22.2276 9.68351 23.036L16.1496 9.50126ZM16.8708 10.0561L9.98271 1.76858L-1.55303 11.3564L5.33507 19.6439L16.8708 10.0561ZM4.21484 14.0625H26.0352V-0.9375H4.21484V14.0625ZM0.813934 11.356L6.67425 18.4079L18.2106 8.82084L12.3503 1.76897L0.813934 11.356ZM6.67362 18.4072C7.68571 19.6254 8.95706 20.6294 10.4181 21.3276L16.8851 7.79322C17.4211 8.04935 17.8679 8.40833 18.2113 8.82159L6.67362 18.4072ZM10.4181 21.3276C11.8807 22.0264 13.4866 22.3957 15.1241 22.3957V7.39573C15.7458 7.39573 16.3475 7.53638 16.8851 7.79322L10.4181 21.3276ZM15.1241 22.3957C16.7616 22.3957 18.3675 22.0264 19.8301 21.3276L13.3631 7.79322C13.9007 7.53638 14.5024 7.39573 15.1241 7.39573L15.1241 22.3957ZM19.8301 21.3276C21.2912 20.6294 22.5625 19.6254 23.5746 18.4072L12.037 8.82159C12.3803 8.40833 12.8271 8.04935 13.3631 7.79322L19.8301 21.3276ZM23.5733 18.4088L29.4353 11.3569L17.9004 1.7681L12.0383 8.81998L23.5733 18.4088ZM23.6679 -0.9375H6.58212V14.0625H23.6679V-0.9375Z" fill="#F1824D" mask="url(#path-3-inside-2_2044_829)"/>
</svg>
