<svg width="76" height="80" viewBox="0 0 76 80" fill="none" xmlns="http://www.w3.org/2000/svg" xmlns:xlink="http://www.w3.org/1999/xlink">
<path d="M8.5,17.5L8.5,57.5C8.5,58.826 9,60.098 9.891,61.036C10.782,61.973 11.99,62.5 13.25,62.5L60.75,62.5C62.01,62.5 63.218,61.973 64.109,61.036C65,60.098 65.5,58.826 65.5,57.5L65.5,17.5L8.5,17.5ZM8.5,12.5L65.5,12.5C66.76,12.5 67.968,13.027 68.859,13.964C69.75,14.902 70.25,16.174 70.25,17.5L70.25,57.5C70.25,60.152 69.249,62.696 67.468,64.571C65.686,66.446 63.27,67.5 60.75,67.5L13.25,67.5C10.73,67.5 8.314,66.446 6.532,64.571C4.751,62.696 3.75,60.152 3.75,57.5L3.75,17.5C3.75,16.174 4.25,14.902 5.141,13.964C6.032,13.027 7.24,12.5 8.5,12.5Z" fill="#F1824D" stroke="#F1824D" stroke-width="10" stroke-miterlimit="3.999327"/>
<path d="M66.094,17.5L47.725,39.6C46.388,41.209 44.739,42.499 42.889,43.383C41.039,44.267 39.031,44.724 37,44.724C34.969,44.724 32.961,44.267 31.111,43.383C29.261,42.499 27.612,41.209 26.274,39.6L7.906,17.5L66.094,17.5ZM14.219,17.5L29.846,36.305C30.738,37.378 31.838,38.238 33.071,38.828C34.304,39.417 35.643,39.722 36.998,39.722C38.352,39.722 39.691,39.417 40.924,38.828C42.158,38.238 43.257,37.378 44.149,36.305L59.781,17.5L14.219,17.5Z" fill="#F1824D" stroke="#F1824D" stroke-width="10" stroke-miterlimit="3.999327"/>
</svg>
