<svg width="78" height="80" viewBox="0 0 78 80" fill="none" xmlns="http://www.w3.org/2000/svg" xmlns:xlink="http://www.w3.org/1999/xlink">
<path d="M10.5,17.5L10.5,57.5C10.5,58.826 11,60.098 11.891,61.036C12.782,61.973 13.99,62.5 15.25,62.5L62.75,62.5C64.01,62.5 65.218,61.973 66.109,61.036C67,60.098 67.5,58.826 67.5,57.5L67.5,17.5L10.5,17.5ZM10.5,12.5L67.5,12.5C68.76,12.5 69.968,13.027 70.859,13.964C71.75,14.902 72.25,16.174 72.25,17.5L72.25,57.5C72.25,60.152 71.249,62.696 69.468,64.571C67.686,66.446 65.27,67.5 62.75,67.5L15.25,67.5C12.73,67.5 10.314,66.446 8.532,64.571C6.751,62.696 5.75,60.152 5.75,57.5L5.75,17.5C5.75,16.174 6.25,14.902 7.141,13.964C8.032,13.027 9.24,12.5 10.5,12.5Z" fill="#F1824D" stroke="#F1824D" stroke-width="10" stroke-miterlimit="3.999327"/>
<path d="M68.094,17.5L49.725,39.6C48.388,41.209 46.739,42.499 44.889,43.383C43.039,44.267 41.031,44.724 39,44.724C36.969,44.724 34.961,44.267 33.111,43.383C31.261,42.499 29.612,41.209 28.274,39.6L9.906,17.5L68.094,17.5ZM16.219,17.5L31.846,36.305C32.738,37.378 33.838,38.238 35.071,38.828C36.304,39.417 37.643,39.722 38.998,39.722C40.352,39.722 41.691,39.417 42.924,38.828C44.158,38.238 45.257,37.378 46.149,36.305L61.781,17.5L16.219,17.5Z" fill="#F1824D" stroke="#F1824D" stroke-width="10" stroke-miterlimit="3.999327"/>
</svg>
