<svg width="70" height="64" viewBox="0 0 70 64" fill="none" xmlns="http://www.w3.org/2000/svg" xmlns:xlink="http://www.w3.org/1999/xlink">
<path d="M23.947,38.917C22.658,38.917 21.568,38.516 20.678,37.716C19.787,36.916 19.342,35.936 19.342,34.777C19.342,33.617 19.787,32.638 20.678,31.837C21.568,31.037 22.658,30.636 23.947,30.636C25.237,30.636 26.327,31.037 27.217,31.837C28.107,32.638 28.553,33.617 28.553,34.777C28.553,35.936 28.107,36.916 27.217,37.716C26.327,38.516 25.237,38.917 23.947,38.917ZM46.053,38.917C44.763,38.917 43.673,38.516 42.783,37.716C41.893,36.916 41.447,35.936 41.447,34.777C41.447,33.617 41.893,32.638 42.783,31.837C43.673,31.037 44.763,30.636 46.053,30.636C47.342,30.636 48.432,31.037 49.322,31.837C50.213,32.638 50.658,33.617 50.658,34.777C50.658,35.936 50.213,36.916 49.322,37.716C48.432,38.516 47.342,38.917 46.053,38.917ZM35,57.961C43.228,57.961 50.197,55.394 55.908,50.26C61.618,45.127 64.474,38.861 64.474,31.464C64.474,30.14 64.382,28.856 64.197,27.614C64.013,26.372 63.676,25.172 63.184,24.012C61.895,24.288 60.605,24.495 59.316,24.633C58.026,24.771 56.675,24.84 55.263,24.84C49.675,24.84 44.395,23.764 39.421,21.611C34.447,19.458 30.211,16.45 26.711,12.586C24.746,16.891 21.936,20.631 18.283,23.805C14.629,26.979 10.377,29.367 5.526,30.968L5.526,31.464C5.526,38.861 8.382,45.127 14.092,50.26C19.803,55.394 26.772,57.961 35,57.961ZM35.006,62.929C30.165,62.929 25.615,62.103 21.356,60.452C17.096,58.8 13.391,56.559 10.24,53.727C7.089,50.896 4.595,47.567 2.757,43.739C0.919,39.912 0,35.822 0,31.47C0,27.118 0.919,23.028 2.756,19.199C4.593,15.369 7.086,12.038 10.236,9.206C13.385,6.373 17.089,4.131 21.346,2.479C25.604,0.826 30.153,0 34.994,0C39.835,0 44.385,0.826 48.644,2.477C52.904,4.129 56.609,6.37 59.76,9.202C62.911,12.033 65.405,15.362 67.243,19.19C69.081,23.017 70,27.107 70,31.459C70,35.811 69.081,39.901 67.244,43.73C65.407,47.56 62.914,50.891 59.764,53.723C56.615,56.556 52.911,58.798 48.654,60.451C44.396,62.103 39.847,62.929 35.006,62.929ZM28.29,5.7C31.082,10.329 34.954,13.848 39.906,16.258C44.859,18.668 49.978,19.872 55.263,19.872C56.265,19.872 57.241,19.826 58.193,19.732C59.145,19.639 60.109,19.505 61.087,19.331C58.626,14.936 55.061,11.444 50.392,8.853C45.723,6.263 40.592,4.968 35,4.968C33.762,4.968 32.609,5.031 31.539,5.156C30.469,5.281 29.386,5.463 28.29,5.7ZM6.561,25.14C10.023,23.581 13.31,21.304 16.423,18.309C19.536,15.313 21.546,11.722 22.453,7.535C18.423,9.178 15.018,11.54 12.236,14.621C9.454,17.701 7.562,21.208 6.561,25.14Z" fill="#F1824D" stroke="#F1824D" stroke-width="3" stroke-miterlimit="3.999327"/>
</svg>
