<svg width="60" height="66" viewBox="0 0 60 66" fill="none" xmlns="http://www.w3.org/2000/svg" xmlns:xlink="http://www.w3.org/1999/xlink">
<path d="M32.75,3.67C32.75,2.697 32.355,1.763 31.652,1.075C30.949,0.387 29.995,0 29,0C28.006,0 27.052,0.387 26.348,1.075C25.645,1.763 25.25,2.697 25.25,3.67L25.239,33.043C25.239,34.016 25.634,34.95 26.337,35.638C27.041,36.326 27.994,36.713 28.989,36.713C29.983,36.713 30.937,36.326 31.641,35.638C32.344,34.95 32.739,34.016 32.739,33.043L32.75,3.67Z" fill="#F1824D"/>
<path d="M-1,36.639C-1,28.528 2.356,21.188 7.786,15.877L13.089,21.067C9.942,24.146 7.799,28.07 6.931,32.342C6.062,36.614 6.508,41.041 8.211,45.065C9.914,49.089 12.797,52.529 16.498,54.948C20.198,57.368 24.548,58.66 28.998,58.66C33.448,58.66 37.798,57.368 41.499,54.948C45.199,52.529 48.083,49.089 49.786,45.065C51.488,41.041 51.934,36.614 51.066,32.342C50.197,28.07 48.054,24.146 44.908,21.067L50.214,15.877C53.702,19.291 56.276,23.495 57.708,28.115C59.14,32.736 59.386,37.631 58.423,42.367C57.461,47.102 55.32,51.533 52.19,55.265C49.061,58.997 45.039,61.917 40.481,63.765C35.923,65.612 30.97,66.332 26.06,65.858C21.15,65.385 16.435,63.734 12.333,61.052C8.231,58.369 4.869,54.738 2.543,50.48C0.217,46.222 -1,41.468 -1,36.639Z" fill="#F1824D"/>
</svg>
