<svg width="62" height="66" viewBox="0 0 62 66" fill="none" xmlns="http://www.w3.org/2000/svg" xmlns:xlink="http://www.w3.org/1999/xlink">
<path d="M34.75,3.67C34.75,2.697 34.355,1.763 33.652,1.075C32.948,0.387 31.995,0 31,0C30.005,0 29.052,0.387 28.348,1.075C27.645,1.763 27.25,2.697 27.25,3.67L27.239,33.043C27.239,34.016 27.634,34.95 28.337,35.638C29.04,36.326 29.994,36.713 30.989,36.713C31.983,36.713 32.937,36.326 33.64,35.638C34.344,34.95 34.739,34.016 34.739,33.043L34.75,3.67Z" fill="#F1824D"/>
<path d="M1,36.639C1,28.528 4.356,21.188 9.786,15.877L15.089,21.067C11.942,24.146 9.799,28.07 8.931,32.342C8.062,36.614 8.508,41.041 10.211,45.065C11.914,49.089 14.797,52.529 18.498,54.948C22.198,57.368 26.548,58.66 30.998,58.66C35.448,58.66 39.798,57.368 43.499,54.948C47.199,52.529 50.083,49.089 51.786,45.065C53.488,41.041 53.934,36.614 53.066,32.342C52.197,28.07 50.054,24.146 46.908,21.067L52.214,15.877C55.702,19.291 58.276,23.495 59.708,28.115C61.14,32.736 61.386,37.631 60.423,42.367C59.461,47.102 57.32,51.533 54.19,55.265C51.061,58.997 47.039,61.917 42.481,63.765C37.923,65.612 32.97,66.332 28.06,65.858C23.15,65.385 18.435,63.734 14.333,61.052C10.231,58.369 6.868,54.738 4.543,50.48C2.217,46.222 1,41.468 1,36.639Z" fill="#F1824D"/>
</svg>
