<svg width="74" height="74" viewBox="0 0 74 74" fill="none" xmlns="http://www.w3.org/2000/svg" xmlns:xlink="http://www.w3.org/1999/xlink">
<mask id="mask_0_32_509" style="mask-type:alpha" maskUnits="userSpaceOnUse" x="-0.521484" y="-0.521484" width="36.52174" height="36.52174">
<rect  x="-0.521" y="-0.521" width="72.543" height="72.543" fill="#F1824D"/>
</mask>
<g mask="url(#mask_0_32_509)">
<path d="M13.472,61.754C12.505,61.969 11.672,61.727 10.973,61.028C10.275,60.33 10.033,59.497 10.248,58.529L12.793,46.309L25.693,59.208L13.472,61.754ZM25.693,59.208L12.793,46.309L46.939,12.163C47.988,11.114 49.288,10.589 50.837,10.589C52.386,10.589 53.685,11.114 54.735,12.163L59.838,17.267C60.888,18.316 61.413,19.616 61.413,21.165C61.413,22.714 60.888,24.013 59.838,25.063L25.693,59.208ZM50.193,15.371L19.073,46.461L25.541,52.928L56.631,21.809C56.807,21.633 56.894,21.414 56.894,21.15C56.894,20.887 56.807,20.667 56.631,20.492L51.51,15.371C51.334,15.195 51.115,15.107 50.851,15.107C50.588,15.107 50.369,15.195 50.193,15.371Z" fill="#F1824D" stroke="#F3F3F3" stroke-width="0.25" stroke-miterlimit="3.999327"/>
</g>
</svg>
