<svg width="90" height="90" viewBox="0 0 90 90" fill="none" xmlns="http://www.w3.org/2000/svg" xmlns:xlink="http://www.w3.org/1999/xlink">
<mask id="mask_0_55_1348" style="mask-type:alpha" maskUnits="userSpaceOnUse" x="0" y="0" width="45" height="45">
<rect  x="0" y="0" width="89.5" height="89.5" fill="#F1824D"/>
</mask>
<g mask="url(#mask_0_55_1348)">
<path d="M17.243,76.732C16.051,76.997 15.024,76.699 14.164,75.838C13.303,74.978 13.005,73.951 13.27,72.759L16.407,57.701L32.301,73.595L17.243,76.732ZM32.301,73.595L16.407,57.701L58.479,15.629C59.772,14.336 61.373,13.689 63.282,13.689C65.19,13.689 66.791,14.336 68.084,15.629L74.373,21.918C75.666,23.211 76.313,24.812 76.313,26.721C76.313,28.629 75.666,30.23 74.373,31.523L32.301,73.595ZM62.488,19.581L24.144,57.889L32.113,65.858L70.421,27.514C70.637,27.297 70.745,27.027 70.745,26.703C70.745,26.378 70.637,26.107 70.421,25.891L64.111,19.581C63.895,19.365 63.624,19.257 63.3,19.257C62.975,19.257 62.705,19.365 62.488,19.581Z" fill="#F1824D" stroke="#F3F3F3" stroke-width="0.25" stroke-miterlimit="3.999327"/>
</g>
</svg>
