<svg width="62" height="60" viewBox="0 0 62 60" fill="none" xmlns="http://www.w3.org/2000/svg" xmlns:xlink="http://www.w3.org/1999/xlink">
<path d="M55.951,24.147C55.951,23.666 55.853,23.191 55.663,22.747C55.473,22.303 55.195,21.9 54.844,21.56C54.493,21.22 54.076,20.951 53.617,20.767C53.158,20.583 52.667,20.488 52.17,20.488C51.674,20.488 51.182,20.583 50.724,20.767C50.265,20.951 49.848,21.22 49.497,21.56C49.146,21.9 48.868,22.303 48.678,22.747C48.488,23.191 48.39,23.666 48.39,24.147L55.951,24.147ZM13.61,24.147C13.61,23.176 13.212,22.246 12.503,21.56C11.794,20.874 10.832,20.488 9.83,20.488C8.827,20.488 7.865,20.874 7.156,21.56C6.447,22.246 6.049,23.176 6.049,24.147L13.61,24.147ZM55.546,32.588C56.255,33.274 57.216,33.659 58.219,33.659C59.222,33.659 60.184,33.274 60.893,32.588C61.602,31.901 62,30.971 62,30C62,29.03 61.602,28.099 60.893,27.413L55.546,32.588ZM31,3.659L33.674,1.072C33.322,0.732 32.906,0.462 32.447,0.279C31.988,0.095 31.497,0 31,0C30.503,0 30.012,0.095 29.553,0.279C29.094,0.462 28.678,0.732 28.326,1.072L31,3.659ZM1.107,27.413C0.398,28.099 0,29.03 0,30C0,30.971 0.398,31.901 1.107,32.588C1.816,33.274 2.778,33.659 3.781,33.659C4.784,33.659 5.745,33.274 6.454,32.588L1.107,27.413ZM15.878,60L46.122,60L46.122,52.683L15.878,52.683L15.878,60ZM55.951,50.488L55.951,24.147L48.39,24.147L48.39,50.488L55.951,50.488ZM13.61,50.488L13.61,24.147L6.049,24.147L6.049,50.488L13.61,50.488ZM60.893,27.413L33.674,1.072L28.326,6.246L55.546,32.588L60.893,27.413ZM28.326,1.072L1.107,27.413L6.454,32.588L33.674,6.246L28.326,1.072ZM46.122,60C48.729,60 51.229,58.998 53.072,57.214C54.915,55.43 55.951,53.011 55.951,50.488L48.39,50.488C48.39,51.07 48.151,51.628 47.726,52.04C47.3,52.452 46.723,52.683 46.122,52.683L46.122,60ZM15.878,52.683C15.277,52.683 14.7,52.452 14.274,52.04C13.849,51.628 13.61,51.07 13.61,50.488L6.049,50.488C6.049,53.011 7.085,55.43 8.928,57.214C10.771,58.998 13.271,60 15.878,60L15.878,52.683Z" fill="#F1824D"/>
</svg>
