<svg width="90" height="82" viewBox="0 0 90 82" fill="none" xmlns="http://www.w3.org/2000/svg" xmlns:xlink="http://www.w3.org/1999/xlink">
<path d="M25.658,8.696C26.771,3.237 31.629,-0.625 37.191,-0.625L50.808,-0.625C56.371,-0.625 61.225,3.237 62.341,8.696C62.464,9.297 62.786,9.839 63.255,10.235C63.723,10.631 64.312,10.858 64.925,10.879L65.062,10.879C70.908,11.138 75.4,11.854 79.15,14.317C81.512,15.867 83.546,17.858 85.129,20.187C87.1,23.079 87.966,26.404 88.383,30.421C88.791,34.35 88.791,39.271 88.791,45.504L88.791,45.858C88.791,52.092 88.791,57.017 88.383,60.942C87.966,64.958 87.1,68.283 85.129,71.179C83.541,73.51 81.509,75.505 79.15,77.05C76.221,78.971 72.858,79.821 68.783,80.225C64.791,80.625 59.787,80.625 53.429,80.625L34.571,80.625C28.212,80.625 23.208,80.625 19.216,80.225C15.141,79.821 11.779,78.975 8.85,77.05C6.49,75.503 4.458,73.507 2.871,71.175C0.9,68.283 0.033,64.958 -0.384,60.942C-0.792,57.017 -0.792,52.092 -0.792,45.858L-0.792,45.504C-0.792,39.271 -0.792,34.35 -0.384,30.421C0.033,26.404 0.9,23.079 2.871,20.187C4.458,17.855 6.49,15.859 8.85,14.313C12.6,11.854 17.091,11.138 22.937,10.883L23.008,10.879L23.075,10.879C23.688,10.858 24.276,10.631 24.745,10.235C25.213,9.839 25.535,9.297 25.658,8.696ZM37.191,5.625C34.525,5.625 32.287,7.471 31.783,9.942C30.971,13.942 27.421,17.092 23.15,17.129C17.533,17.379 14.525,18.067 12.275,19.542C10.603,20.638 9.164,22.053 8.037,23.704C6.887,25.392 6.196,27.554 5.829,31.067C5.462,34.633 5.458,39.233 5.458,45.683C5.458,52.133 5.458,56.729 5.833,60.296C6.196,63.808 6.887,65.971 8.041,67.662C9.158,69.304 10.596,70.721 12.279,71.825C14.016,72.963 16.241,73.65 19.837,74.008C23.479,74.371 28.171,74.375 34.741,74.375L53.258,74.375C59.825,74.375 64.516,74.375 68.162,74.008C71.758,73.65 73.983,72.967 75.721,71.825C77.404,70.721 78.846,69.304 79.962,67.658C81.112,65.971 81.804,63.808 82.171,60.296C82.537,56.729 82.541,52.129 82.541,45.683C82.541,39.233 82.541,34.633 82.166,31.067C81.804,27.554 81.112,25.392 79.958,23.704C78.833,22.05 77.393,20.635 75.721,19.538C73.479,18.067 70.471,17.379 64.846,17.129C60.579,17.087 57.029,13.946 56.216,9.942C55.95,8.709 55.266,7.607 54.281,6.821C53.295,6.034 52.069,5.612 50.808,5.625L37.191,5.625ZM44,34.792C41.513,34.792 39.129,35.779 37.371,37.538C35.612,39.296 34.625,41.68 34.625,44.167C34.625,46.653 35.612,49.038 37.371,50.796C39.129,52.554 41.513,53.542 44,53.542C46.486,53.542 48.871,52.554 50.629,50.796C52.387,49.038 53.375,46.653 53.375,44.167C53.375,41.68 52.387,39.296 50.629,37.538C48.871,35.779 46.486,34.792 44,34.792ZM28.375,44.167C28.375,40.023 30.021,36.048 32.951,33.118C35.881,30.188 39.856,28.542 44,28.542C48.144,28.542 52.118,30.188 55.048,33.118C57.978,36.048 59.625,40.023 59.625,44.167C59.625,48.311 57.978,52.285 55.048,55.215C52.118,58.145 48.144,59.792 44,59.792C39.856,59.792 35.881,58.145 32.951,55.215C30.021,52.285 28.375,48.311 28.375,44.167ZM65.875,31.667C65.875,30.838 66.204,30.043 66.79,29.457C67.376,28.871 68.171,28.542 69,28.542L73.166,28.542C73.995,28.542 74.79,28.871 75.376,29.457C75.962,30.043 76.291,30.838 76.291,31.667C76.291,32.495 75.962,33.29 75.376,33.876C74.79,34.462 73.995,34.792 73.166,34.792L69,34.792C68.171,34.792 67.376,34.462 66.79,33.876C66.204,33.29 65.875,32.495 65.875,31.667Z" clip-rule="evenodd" fill-rule="evenodd" fill="#FF9A62"/>
</svg>
