<svg width="58" height="72" viewBox="0 0 58 72" fill="none" xmlns="http://www.w3.org/2000/svg" xmlns:xlink="http://www.w3.org/1999/xlink">
<path d="M55.583,32.922L2.612,0.24C2.196,-0.017 1.73,-0.119 1.269,-0.056C0.807,0.007 0.371,0.234 0.011,0.596C-0.332,0.951 -0.588,1.417 -0.729,1.942C-0.869,2.467 -0.888,3.03 -0.783,3.567L6.344,35.567L-0.88,67.477C-0.978,67.925 -0.989,68.396 -0.913,68.852C-0.837,69.307 -0.675,69.734 -0.441,70.098C-0.207,70.462 0.093,70.753 0.435,70.948C0.777,71.143 1.152,71.236 1.528,71.22C1.905,71.218 2.276,71.106 2.612,70.893L55.583,38.211C55.978,37.962 56.309,37.583 56.54,37.116C56.771,36.65 56.893,36.113 56.893,35.567C56.893,35.02 56.771,34.483 56.54,34.017C56.309,33.55 55.978,33.172 55.583,32.922ZM5.26,62.634L10.581,38.538L32.83,38.538L32.83,32.595L10.581,32.595L5.26,8.499L49.106,35.567L5.26,62.634Z" fill="#F1824D"/>
</svg>
