<svg width="60" height="76" viewBox="0 0 60 76" fill="none" xmlns="http://www.w3.org/2000/svg" xmlns:xlink="http://www.w3.org/1999/xlink">
<path d="M45,8.75L45,15L56.25,15C57.245,15 58.198,15.395 58.902,16.098C59.605,16.802 60,17.755 60,18.75C60,19.745 59.605,20.698 58.902,21.402C58.198,22.105 57.245,22.5 56.25,22.5L3.75,22.5C2.755,22.5 1.802,22.105 1.098,21.402C0.395,20.698 0,19.745 0,18.75C0,17.755 0.395,16.802 1.098,16.098C1.802,15.395 2.755,15 3.75,15L15,15L15,8.75C15,3.92 18.92,0 23.75,0L36.25,0C41.08,0 45,3.92 45,8.75ZM12.48,33.375L15.78,66.375C15.811,66.684 15.956,66.97 16.186,67.177C16.416,67.385 16.715,67.5 17.025,67.5L42.975,67.5C43.285,67.5 43.584,67.385 43.814,67.177C44.044,66.97 44.189,66.684 44.22,66.375L47.52,33.375C47.644,32.406 48.141,31.524 48.905,30.916C49.669,30.308 50.641,30.023 51.612,30.12C52.584,30.217 53.48,30.689 54.108,31.436C54.737,32.183 55.05,33.146 54.98,34.12L51.68,67.12C51.464,69.279 50.454,71.281 48.846,72.737C47.237,74.193 45.145,75 42.975,75L17.025,75C14.856,75 12.764,74.194 11.156,72.739C9.548,71.284 8.537,69.283 8.32,67.125L5.02,34.125C4.957,33.629 4.995,33.124 5.13,32.643C5.265,32.161 5.495,31.711 5.807,31.32C6.119,30.928 6.506,30.603 6.945,30.363C7.385,30.124 7.867,29.975 8.365,29.925C8.863,29.874 9.366,29.925 9.844,30.072C10.323,30.219 10.767,30.461 11.15,30.782C11.534,31.104 11.849,31.499 12.077,31.944C12.306,32.389 12.443,32.876 12.48,33.375ZM22.5,8.75L22.5,15L37.5,15L37.5,8.75C37.5,8.418 37.368,8.101 37.134,7.866C36.899,7.632 36.582,7.5 36.25,7.5L23.75,7.5C23.418,7.5 23.101,7.632 22.866,7.866C22.632,8.101 22.5,8.418 22.5,8.75Z" fill="#FF9A62"/>
</svg>
