<svg width="64" height="64" viewBox="0 0 64 64" fill="none" xmlns="http://www.w3.org/2000/svg" xmlns:xlink="http://www.w3.org/1999/xlink">
<path d="M44.833,39.333L41.937,39.333L40.91,38.343C44.628,34.031 46.671,28.527 46.667,22.833C46.667,18.12 45.269,13.512 42.65,9.592C40.031,5.673 36.309,2.618 31.954,0.814C27.599,-0.99 22.807,-1.462 18.184,-0.542C13.56,0.378 9.314,2.647 5.981,5.981C2.647,9.314 0.378,13.56 -0.542,18.184C-1.462,22.807 -0.99,27.599 0.814,31.954C2.618,36.309 5.673,40.031 9.592,42.65C13.512,45.269 18.12,46.667 22.833,46.667C28.737,46.667 34.163,44.503 38.343,40.91L39.333,41.937L39.333,44.833L57.667,63.13L63.13,57.667L44.833,39.333ZM22.833,39.333C13.703,39.333 6.333,31.963 6.333,22.833C6.333,13.703 13.703,6.333 22.833,6.333C31.963,6.333 39.333,13.703 39.333,22.833C39.333,31.963 31.963,39.333 22.833,39.333Z" fill="#F1824D"/>
</svg>
